<svg xmlns="http://www.w3.org/2000/svg" viewBox="0 0 1519.76 685.93"><defs><style>.cls-1,.cls-2,.cls-3{fill:#231f20;}.cls-2{font-size:239px;font-family:PalatinoLinotype-Italic, Palatino Linotype;font-style:italic;}.cls-3{font-size:121px;font-family:PalatinoLinotype-Bold, Palatino Linotype;font-weight:700;letter-spacing:0.72em;}</style></defs><g id="Layer_2" data-name="Layer 2"><g id="Layer_1-2" data-name="Layer 1"><polygon class="cls-1" points="636.91 636.94 612.39 685.93 587.9 636.94 563.4 587.95 538.9 538.96 538.9 538.93 514.41 489.94 489.91 440.95 465.42 391.96 367.44 391.96 367.44 342.96 440.92 342.96 416.43 293.97 391.93 244.98 367.44 195.99 342.94 147 318.44 97.98 293.95 147 269.45 195.99 244.96 244.98 220.46 293.97 195.97 342.96 269.45 342.96 269.45 391.96 171.47 391.96 146.97 440.95 122.48 489.94 97.98 538.93 97.98 538.96 73.49 587.95 48.99 636.94 24.5 685.93 0 636.94 24.5 587.95 48.99 538.96 48.99 538.93 73.49 489.94 97.98 440.95 122.48 391.96 146.97 342.96 171.47 293.97 195.97 244.98 220.46 195.99 244.96 147 269.45 97.98 293.95 48.99 318.44 0 342.94 48.99 367.44 97.98 391.93 147 416.43 195.99 440.92 244.98 465.42 293.97 489.91 342.96 514.41 391.96 538.9 440.95 563.4 489.94 587.9 538.93 587.9 538.96 612.39 587.95 636.91 636.94"/><polygon class="cls-1" points="416.43 440.95 416.43 685.93 391.93 636.94 367.44 587.95 367.44 440.95 416.43 440.95"/><polygon class="cls-1" points="269.45 440.95 269.45 587.95 244.96 636.94 220.46 685.93 220.46 440.95 269.45 440.95"/><text class="cls-2" transform="translate(802.93 340.75)">APEX</text><text class="cls-3" transform="translate(795.07 514)">Store</text></g></g></svg>