<?xml version="1.0" encoding="utf-8"?>
<!-- Generator: Adobe Illustrator 26.0.0, SVG Export Plug-In . SVG Version: 6.00 Build 0)  -->
<svg version="1.1" id="Layer_1" xmlns="http://www.w3.org/2000/svg" xmlns:xlink="http://www.w3.org/1999/xlink" x="0px" y="0px"
	 viewBox="0 0 1943 647.4" style="enable-background:new 0 0 1943 647.4;" xml:space="preserve">
<style type="text/css">
	.st0{enable-background:new    ;}
</style>
<g id="Layer_2_00000039110818716948947170000002110359727040817823_">
	<g id="Layer_1-2">
		<g id="Layer_2-2">
			<g id="Layer_1-2-2">
				<polygon points="653.6,601.2 630.4,647.4 607.3,601.2 584.2,554.9 561.1,508.7 561.1,508.7 538,462.4 514.8,416.2 491.7,369.9 
					399.2,369.9 399.2,323.7 468.6,323.7 445.5,277.4 422.3,231.2 399.2,185 376.1,138.7 353,92.4 329.9,138.7 306.7,185 
					283.6,231.2 260.5,277.4 237.4,323.7 306.7,323.7 306.7,369.9 214.2,369.9 191.1,416.2 168,462.4 144.9,508.7 144.9,508.7 
					121.8,554.9 98.6,601.2 75.5,647.4 52.4,601.2 75.5,554.9 98.6,508.7 98.6,508.7 121.8,462.4 144.9,416.2 168,369.9 
					191.1,323.7 214.2,277.4 237.4,231.2 260.5,185 283.6,138.7 306.7,92.4 329.9,46.2 353,0 376.1,46.2 399.2,92.4 422.3,138.7 
					445.5,185 468.6,231.2 491.7,277.4 514.8,323.7 538,369.9 561.1,416.2 584.2,462.4 607.3,508.7 607.3,508.7 630.4,554.9 				"/>
				<polygon points="445.5,416.2 445.5,647.4 422.3,601.2 399.2,554.9 399.2,416.2 				"/>
				<polygon points="306.7,416.2 306.7,554.9 283.6,601.2 260.5,647.4 260.5,416.2 				"/>
			</g>
		</g>
		<g class="st0">
			<path d="M783,399.1h-23.3c-0.1-3-0.1-5.5-0.1-7.5c0-7.6,0.9-14.8,2.6-21.5c-14.9,22.1-33.5,33.1-55.7,33.1
				c-13.9,0-25.2-4.2-34.1-12.7c-8.8-8.5-13.3-19.1-13.3-31.9c0-14.3,6.3-26.6,19-36.7s36.4-15.2,71-15.2c3.1,0,10.6,0.3,22.4,0.9
				c1.1-6.3,1.6-11.5,1.6-15.5c0-18.8-11.4-28.1-34.1-28.1c-20,0-34.3,8.3-42.9,25l-21.7-9.2c11.7-22.5,32.7-33.7,63.1-33.7
				c16.8,0,30.8,3.7,42.1,11.1s17,17.8,17,31.3c0,5.5-3.8,31.2-11.3,77.1c-2,12.4-2.9,21.5-2.9,27.4
				C782.6,393.7,782.8,395.8,783,399.1z M768.8,324.4c-7-0.6-13.7-0.9-20.2-0.9c-42.7,0-64,12-64,36c0,7.4,2.3,13.4,6.9,17.9
				c4.6,4.5,11.1,6.7,19.4,6.7c13.1,0,25.2-5.6,36.4-16.8C758.6,356.1,765.7,341.8,768.8,324.4z"/>
			<path d="M840.2,449.1h-22.9l33.1-197.9h21.2l-4.9,30.6c13.8-22.6,30.4-33.8,49.9-33.8c13.7,0,25.2,5.6,34.5,16.7
				c9.3,11.1,13.9,26.7,13.9,46.6c0,23.4-6.5,44.5-19.5,63.5s-29.4,28.4-49.4,28.4c-18.9,0-33.6-8.6-44.1-25.7L840.2,449.1z
				 M892.7,384.6c16.2,0,28.2-8.1,36-24.4s11.7-33.9,11.7-52.9c0-13.3-3.1-23.4-9.2-30.3s-13.6-10.3-22.4-10.3
				c-12.5,0-24,7.8-34.5,23.5s-15.7,33.4-15.7,53.1c0,12.5,3.1,22.5,9.3,30C874,380.9,882.3,384.6,892.7,384.6z"/>
		</g>
		<g class="st0">
			<path d="M1113.2,364.3c-15.2,26-36.6,39-64.2,39c-18.7,0-33.9-6.1-45.6-18.3c-11.8-12.2-17.7-28.7-17.7-49.5
				c0-25.6,7.3-46.9,22-64c14.6-17.1,32.8-25.6,54.5-25.6c10.6,0,20.6,2.3,29.8,6.9c9.2,4.6,16.4,11.7,21.5,21.5s7.7,21.6,7.7,35.5
				c0,5-0.4,10.6-1.3,17h-109.4c-0.6,4.7-0.9,8.5-0.9,11.6c0,13.6,3.6,24.6,10.7,33s16.8,12.7,29,12.7c8.4,0,16-1.9,22.8-5.6
				c6.8-3.8,14.1-11.5,21.9-23.2L1113.2,364.3z M1013.5,309.9h84.4c0.2-3.1,0.3-5.5,0.3-7c0-12-3.4-21.5-10.3-28.7
				c-6.8-7.2-15.7-10.7-26.7-10.7c-12.4,0-22.9,4.6-31.6,13.8C1021,286.5,1015.6,297.4,1013.5,309.9z"/>
		</g>
		<g class="st0">
			<path d="M1246.9,399.1H1221l-31-61.4l-48.3,61.4h-23.1l61.5-76.9l-37.4-71.5h26.2l27,53.1l41.3-53.1h22.1l-54.5,68.6
				L1246.9,399.1z"/>
		</g>
		<g class="st0">
			<path d="M1353.2,371.9l11.3-2.6c4.5,13.6,14.4,20.4,29.5,20.4c7.9,0,13.9-1.7,17.9-5c4-3.4,6-7.9,6-13.5c0-4.3-1.5-7.7-4.6-10.3
				c-3.1-2.6-6.6-4.4-10.6-5.4l-20-4.9c-5.2-1.3-9.4-2.9-12.7-4.8c-3.3-1.9-6.1-4.8-8.4-8.7c-2.3-3.9-3.4-8.4-3.4-13.4
				c0-8.4,3.1-15,9.4-20s14.4-7.4,24.2-7.4c18.2,0,30.1,8.2,35.8,24.7l-11.4,3.4c-1.3-5.9-4.4-10.3-9.3-13.3s-10.1-4.5-15.6-4.5
				s-10.3,1.4-14.6,4.3c-4.3,2.9-6.4,7-6.4,12.3c0,7.4,5.4,12.4,16.2,15l18.7,4.4c17.1,4.1,25.6,13.3,25.6,27.6
				c0,8.6-3.2,15.8-9.6,21.6c-6.4,5.7-15.5,8.6-27.1,8.6C1373.6,400.4,1359.9,390.9,1353.2,371.9z"/>
			<path d="M1534.6,390.5v9.1c-4.1,0.5-7.6,0.8-10.5,0.8c-14.3,0-21.5-7.5-21.5-22.4v-44.6h-13.1v-9h13.1l0.5-18.6l10.7-1v19.6h16.6
				v9h-16.6v46.5c0,7.6,4,11.4,11.9,11.4C1528.3,391.3,1531.3,391,1534.6,390.5z"/>
			<path d="M1624,400.4c-10.2,0-18.1-3.8-23.8-11.3c-5.7-7.5-8.5-16.9-8.5-28c0-11.8,3.2-21.2,9.6-28.2s14.4-10.6,23.9-10.6
				c10.2,0,18.2,3.7,24.1,11.1s8.8,16.7,8.8,27.7c0,11.5-3.2,21-9.5,28.3C1642.2,396.7,1634,400.4,1624,400.4z M1624.9,390.8
				c5.9,0,10.8-2.4,14.7-7.3s5.9-12.4,5.9-22.6c0-10.3-2.1-17.7-6.2-22.3c-4.2-4.6-9-6.9-14.6-6.9c-5.7,0-10.5,2.3-14.5,7
				s-5.9,12-5.9,22.2c0,10.7,2,18.3,5.9,23C1614.2,388.5,1619.1,390.8,1624.9,390.8z"/>
			<path d="M1739.4,398.3h-11.5v-74h10.1v17.3c3.6-8.2,7.1-13.4,10.7-15.9c3.6-2.4,7.3-3.6,11-3.6c1.2,0,2.7,0.1,4.5,0.3v11h-2.3
				c-6.3,0-11.6,2.4-15.8,7.1c-4.2,4.7-6.4,11-6.7,18.7L1739.4,398.3L1739.4,398.3z"/>
			<path d="M1878.7,376.3l10.7,2.2c-2,6.3-5.8,11.6-11.4,15.7c-5.7,4.1-12.3,6.2-20,6.2c-10.1,0-18.3-3.6-24.5-10.7
				c-6.3-7.1-9.4-16.4-9.4-28c0-11.8,3.2-21.3,9.7-28.6c6.5-7.3,14.6-10.9,24.5-10.9c9.7,0,17.4,3.3,23.3,10s8.9,16.7,9,30h-53.8
				c0,11.2,2.3,18.7,7,22.6s9.6,5.9,14.9,5.9C1868.2,390.8,1874.8,386,1878.7,376.3z M1878,353.8c-0.1-4.1-0.8-7.8-2.1-11.1
				c-1.3-3.2-3.4-6-6.4-8.2c-3-2.3-6.7-3.4-10.9-3.4c-5.7,0-10.6,2.1-14.5,6.2c-4,4.1-6.2,9.6-6.7,16.6h40.6V353.8z"/>
		</g>
	</g>
</g>
</svg>
